<?xml version="1.0" standalone="no"?><!DOCTYPE svg PUBLIC "-//W3C//DTD SVG 1.1//EN" "http://www.w3.org/Graphics/SVG/1.1/DTD/svg11.dtd"><svg t="1720231792528" class="icon" viewBox="0 0 1069 1024" version="1.1" xmlns="http://www.w3.org/2000/svg" p-id="3274" data-spm-anchor-id="a313x.search_index.0.i1.46f93a81uLI0gC" xmlns:xlink="http://www.w3.org/1999/xlink" width="208.7890625" height="200"><path d="M826.354742 518.515838a320.1619 320.1619 0 0 0-579.182819 140.766956 185.319942 185.319942 0 0 0 47.395985 364.714886h472.304852c7.819998 0 15.403995 0 23.697993-1.422a271.580915 271.580915 0 0 0 27.726991 1.422 252.859921 252.859921 0 0 0 9.004997-505.481842zM547.974829 0.825q24.549992 6.343998 18.205994 30.89499l-29.529991 114.262964q-6.343998 24.549992-30.89399 18.205995-24.549992-6.344998-18.205994-30.894991L517.079838 19.029994Q523.424836-5.519998 547.974829 0.825zM207.558935 48.521985q21.845993-12.872996 34.719989 8.972997l59.914982 101.675968q12.873996 21.845993-8.971998 34.719989-21.846993 12.872996-34.719989-8.972997L198.585938 83.241974q-12.872996-21.845993 8.972997-34.719989zM0.734 323.156899Q7.079998 298.604907 31.62999 304.949905l114.262964 29.52899q24.549992 6.343998 18.205995 30.894991-6.343998 24.549992-30.894991 18.205994L18.939994 354.049889Q-5.609998 347.706891 0.734 323.155899zM48.517985 663.552793q-12.873996-21.845993 8.971997-34.71999l101.676968-59.915981q21.845993-12.872996 34.719989 8.972997 12.872996 21.845993-8.972997 34.71999L83.236974 672.52479q-21.845993 12.873996-34.719989-8.971997zM822.415743 207.558935q12.872996 21.845993-8.972997 34.719989l-101.675968 59.915982q-21.845993 12.872996-34.71999-8.972998-12.872996-21.845993 8.972998-34.719989l101.675968-59.915981q21.845993-12.872996 34.719989 8.972997z" fill="#07D1D6" p-id="3275"></path><path d="M564.252824 334.854895a379.169882 379.169882 0 0 1 65.643979 6.398998 219.207931 219.207931 0 1 0-392.914877 193.13994 369.216885 369.216885 0 0 1 327.270898-199.538938z" fill="#07D1D6" p-id="3276" data-spm-anchor-id="a313x.search_index.0.i0.46f93a81uLI0gC"></path></svg>